# xmcd CD database file
#
# Track frame offsets:
#	150
#	18383
#	37194
#	50834
#	75246
#	99261
#	114364
#	129060
#	145487
#	161763
#	171691
#	183032
#	202128
#	218676
#	231418
#	243201
#	264181
#	281447
#	305677
#
# Disc length: 4247 seconds
#
# Revision: 0
# Processed by: cddbd v1.4PL0 Copyright (c) Steve Scherf et al.
# Submitted via: CdAid 2001.05.15.01
#
DISCID=09109513
DTITLE=Joan Manuel Serrat - Serrat and Friends
DYEAR=1900
DGENRE=
TTITLE0=Sinceramente Teu
TTITLE1=Soy Sinceramente Tuyo
TTITLE2=Nao Faco Otra Cosa Que Pensar Em Ti
TTITLE3=Cada Cual Com Sua Mania
TTITLE4=Cada Loco Con Su Tema
TTITLE5=De Vez Em Cuando A Vida
TTITLE6=De Vez En Cuando La Vida
TTITLE7=Uma Mulher Nua E No Oscuro
TTITLE8=Una Mujer Desnuda Y En Lo Oscuro
TTITLE9=Aquellas Pequeñas Cosas (con Toquinho)
TTITLE10=Aquellas Pequeñas Cosas
TTITLE11=Paraules De Amor (con Ana Belen)
TTITLE12=Paraules De Amor
TTITLE13=Puede Contar Conmigo
TTITLE14=Y El Amor
TTITLE15=Pendiente De Ti
TTITLE16=Temps Era Temps
TTITLE17=Seria Fantastic
TTITLE18=Lucia
EXTD=
EXTT0=
EXTT1=
EXTT2=
EXTT3=
EXTT4=
EXTT5=
EXTT6=
EXTT7=
EXTT8=
EXTT9=
EXTT10=
EXTT11=
EXTT12=
EXTT13=
EXTT14=
EXTT15=
EXTT16=
EXTT17=
EXTT18=
PLAYORDER=
